<svg xmlns="http://www.w3.org/2000/svg" viewBox="0 0 927.53 170.15" width="927.53" height="170.15"><g id="Layer_2" data-name="Layer 2"><g id="Layer_1-2" data-name="Layer 1"><g style="isolation:isolate"><path d="M193.08,135.66c-19.12,0-35.11-14.87-35.11-34s16-34.11,35.11-34.11Zm6.5,0V67.55a34.61,34.61,0,0,1,34.62,34.61v33.5Z" fill="#8190e8"/><path d="M244,135.66v-66h34.62v66Zm52.24-68a11.88,11.88,0,1,1-11.88,11.88A12,12,0,0,1,296.19,67.67Z" fill="#8190e8"/><path d="M348.3,69.67v65.86a34.62,34.62,0,0,1-34.62,34.62V69.67ZM321.81,46.93a11.87,11.87,0,1,0,11.87-11.87A11.94,11.94,0,0,0,321.81,46.93Z" fill="#8190e8"/><path d="M390.92,137a34.62,34.62,0,1,1,0-69.23Zm6.49,0a34.62,34.62,0,1,0,0-69.23Z" fill="#8190e8"/><path d="M440,135.66v-66h34.62v66Zm52.24-68A11.88,11.88,0,1,1,480.4,79.55,12,12,0,0,1,492.27,67.67Z" fill="#8190e8"/><path d="M539.26,128.78a26.41,26.41,0,0,0,23-13.74l7.5,3.75A34.54,34.54,0,0,1,539.26,137c-18.75,0-34.37-15.74-34.37-34.49A34.59,34.59,0,0,1,539.26,67.8Zm6.5-60.86c15,2.88,26.74,16.25,28.11,31.87H545.76Z" fill="#8190e8"/><path d="M613,128.78A26.42,26.42,0,0,0,636,115l7.49,3.75A34.53,34.53,0,0,1,613,137c-18.74,0-34.37-15.74-34.37-34.49A34.59,34.59,0,0,1,613,67.8Zm6.5-60.86c15,2.88,26.74,16.25,28.12,31.87H619.49Z" fill="#8190e8"/><path d="M661.23,113.54a11.87,11.87,0,1,1-11.87,11.87A11.94,11.94,0,0,1,661.23,113.54Z" fill="#8190e8"/><path d="M721.34,129.16A37,37,0,0,0,754,109.66l7.37,3.88a45.19,45.19,0,0,1-40,23.87c-24.74,0-45.36-20.75-45.36-45.49s20.62-45.37,45.36-45.37Zm6.5-40.74V46.68c20.75,3,37,20.49,38.74,41.74Z" fill="#8190e8"/><path d="M781.33,113.54a11.87,11.87,0,1,1-11.87,11.87A11.94,11.94,0,0,1,781.33,113.54Z" fill="#8190e8"/><path d="M865.46,37.4h.17v42h15.13v8.84H865.63v30.43h-.17v17H803.75V76.16c0-33.66,28-61.71,61.71-61.71Zm8.84,34V14.62C902.52,18.7,924.62,42.5,927,71.4Z" fill="#8190e8"/><path d="M915.66,113.54a11.87,11.87,0,1,1-11.87,11.87A11.94,11.94,0,0,1,915.66,113.54Z" fill="#8190e8"/></g><g style="isolation:isolate"><path d="M188.12,133.74c-19.12,0-35.12-14.87-35.12-34s16-34.12,35.12-34.12Zm6.5,0V65.63a34.61,34.61,0,0,1,34.61,34.62v33.49Z" fill="#d5d1ff"/><path d="M239,133.74v-66H273.6v66Zm52.24-68a11.88,11.88,0,1,1-11.87,11.88A12,12,0,0,1,291.22,65.75Z" fill="#d5d1ff"/><path d="M343.33,67.75v65.86a34.61,34.61,0,0,1-34.61,34.62V67.75ZM316.84,45a11.88,11.88,0,1,0,11.87-11.87A11.95,11.95,0,0,0,316.84,45Z" fill="#d5d1ff"/><path d="M386,135.11a34.62,34.62,0,1,1,0-69.23Zm6.5,0a34.62,34.62,0,1,0,0-69.23Z" fill="#d5d1ff"/><path d="M435.06,133.74v-66h34.62v66Zm52.24-68a11.88,11.88,0,1,1-11.87,11.88A12,12,0,0,1,487.3,65.75Z" fill="#d5d1ff"/><path d="M534.29,126.86a26.42,26.42,0,0,0,23-13.74l7.49,3.75a34.53,34.53,0,0,1-30.49,18.24c-18.74,0-34.36-15.74-34.36-34.49a34.59,34.59,0,0,1,34.36-34.74ZM540.79,66c15,2.88,26.74,16.25,28.12,31.87H540.79Z" fill="#d5d1ff"/><path d="M608,126.86a26.41,26.41,0,0,0,23-13.74l7.5,3.75A34.56,34.56,0,0,1,608,135.11c-18.74,0-34.36-15.74-34.36-34.49A34.59,34.59,0,0,1,608,65.88ZM614.52,66c15,2.88,26.75,16.25,28.12,31.87H614.52Z" fill="#d5d1ff"/><path d="M656.27,111.62a11.87,11.87,0,1,1-11.88,11.87A11.95,11.95,0,0,1,656.27,111.62Z" fill="#d5d1ff"/><path d="M716.38,127.24A36.93,36.93,0,0,0,749,107.74l7.38,3.88a45.2,45.2,0,0,1-40,23.87C691.63,135.49,671,114.74,671,90s20.62-45.37,45.37-45.37Zm6.5-40.74V44.76c20.74,3,37,20.49,38.74,41.74Z" fill="#d5d1ff"/><path d="M776.36,111.62a11.87,11.87,0,1,1-11.87,11.87A12,12,0,0,1,776.36,111.62Z" fill="#d5d1ff"/><path d="M860.5,35.48h.17v42H875.8v8.84H860.67v30.43h-.17v17H798.79V74.24c0-33.66,28.05-61.71,61.71-61.71Zm8.84,34V12.7c28.22,4.08,50.32,27.88,52.7,56.78Z" fill="#d5d1ff"/><path d="M910.7,111.62a11.87,11.87,0,1,1-11.88,11.87A11.95,11.95,0,0,1,910.7,111.62Z" fill="#d5d1ff"/></g><g style="isolation:isolate"><path d="M5.88,135.9V2.71H46.62V135.9ZM53.12,2.71c25.12,0,45.37,31.23,45.37,69.76V135.9H53.12ZM105,14.2c25.12,0,45.37,31.24,45.37,69.76V135.9H105Z" fill="#8190e8"/></g><g style="isolation:isolate"><path d="M0,134V0H41.1V134ZM47.65,0C73,0,93.42,31.42,93.42,70.16V134H47.65ZM100,11.57c25.34,0,45.76,31.41,45.76,70.16V134H100Z" fill="#d5d1ff"/></g></g></g></svg>